<svg width="60" height="144" viewBox="0 0 60 144" fill="none" xmlns="http://www.w3.org/2000/svg">
<path d="M45.1912 1.11922C44.7051 0.335405 43.6756 0.0940581 42.8918 0.58016C42.108 1.06626 41.8666 2.09573 42.3527 2.87955L45.1912 1.11922ZM55.3597 69.4466L53.751 68.9982L55.3597 69.4466ZM0.948647 141.18C0.890296 142.101 1.58918 142.894 2.50964 142.953L17.5095 143.904C18.43 143.962 19.2235 143.263 19.2818 142.343C19.3402 141.422 18.6413 140.629 17.7208 140.57L4.38761 139.725L5.23285 126.392C5.2912 125.471 4.59232 124.678 3.67185 124.62C2.75138 124.561 1.9579 125.26 1.89954 126.181L0.948647 141.18ZM43.772 1.99939C42.3527 2.87955 42.3526 2.87923 42.3524 2.87904C42.3525 2.87915 42.3525 2.87909 42.3526 2.8793C42.3529 2.87973 42.3534 2.88067 42.3543 2.88212C42.3561 2.88502 42.3592 2.88996 42.3634 2.89693C42.372 2.91086 42.3854 2.93288 42.4036 2.96286C42.4399 3.02282 42.4951 3.11463 42.5676 3.23725C42.7127 3.48249 42.9268 3.85089 43.1977 4.33417C43.7396 5.30087 44.5078 6.7264 45.4029 8.54461C47.1939 12.1828 49.4878 17.3833 51.4923 23.6182C55.5101 36.115 58.317 52.6162 53.751 68.9982L56.9684 69.895C61.7793 52.6344 58.7924 35.412 54.672 22.5959C52.6075 16.1743 50.2463 10.8209 48.3995 7.06944C47.4756 5.1928 46.6793 3.71451 46.1113 2.7011C45.8272 2.19433 45.6001 1.80361 45.4426 1.53724C45.3639 1.40405 45.3025 1.30193 45.2601 1.23192C45.2389 1.19691 45.2224 1.16993 45.2108 1.15111C45.2051 1.14169 45.2005 1.13432 45.1973 1.129C45.1956 1.12634 45.1943 1.1242 45.1933 1.12257C45.1928 1.12175 45.1923 1.12091 45.192 1.12051C45.1916 1.1198 45.1912 1.11922 43.772 1.99939ZM53.751 68.9982C49.1698 85.4347 36.2044 103.156 24.2134 116.884C18.2427 123.719 12.561 129.513 8.3722 133.596C6.27837 135.638 4.55907 137.25 3.36509 138.351C2.76813 138.902 2.3026 139.324 1.98736 139.608C1.82974 139.75 1.7097 139.857 1.62961 139.928C1.58956 139.964 1.55949 139.99 1.53971 140.008C1.52982 140.017 1.5225 140.023 1.51779 140.027C1.51543 140.029 1.51373 140.031 1.51268 140.032C1.51215 140.032 1.51186 140.033 1.5116 140.033C1.51147 140.033 1.51151 140.033 2.6153 141.286C3.71909 142.539 3.71946 142.539 3.71999 142.538C3.72039 142.538 3.72108 142.538 3.72188 142.537C3.72347 142.535 3.72572 142.533 3.72862 142.531C3.73442 142.526 3.74283 142.518 3.75382 142.509C3.7758 142.489 3.80809 142.46 3.85038 142.423C3.93497 142.348 4.05959 142.236 4.22189 142.09C4.54649 141.798 5.02185 141.367 5.62904 140.807C6.84334 139.687 8.58538 138.053 10.7038 135.988C14.9394 131.859 20.6856 126 26.7289 119.081C38.7659 105.3 52.1727 87.1012 56.9684 69.895L53.751 68.9982Z" fill="#060606"/>
</svg>
