<svg width="174" height="84" viewBox="0 0 174 84" fill="none" xmlns="http://www.w3.org/2000/svg">
<path d="M171.219 53.6261C171.06 52.533 170.045 51.7757 168.952 51.9345L151.139 54.5234C150.046 54.6823 149.289 55.6972 149.448 56.7903C149.607 57.8834 150.622 58.6407 151.715 58.4818L167.548 56.1806L169.85 72.0142C170.009 73.1073 171.023 73.8647 172.117 73.7058C173.21 73.5469 173.967 72.532 173.808 71.4389L171.219 53.6261ZM86.4613 71.1237L87.5616 69.4536L86.4613 71.1237ZM65.5108 16.6972L67.2091 17.7535L65.5108 16.6972ZM116.646 15.3639L114.898 16.3369L114.898 16.3369L116.646 15.3639ZM3.87977 7.83036C3.46519 6.80655 2.29914 6.31266 1.27533 6.72724C0.251511 7.14182 -0.242368 8.30787 0.172209 9.33169L3.87977 7.83036ZM167.637 52.7176C161.833 60.4962 150.808 70.6981 136.734 75.9236C122.761 81.1114 105.733 81.4257 87.5616 69.4536L85.3609 72.7938C104.698 85.5343 123.078 85.2604 138.126 79.6735C153.072 74.1242 164.683 63.3649 170.843 55.1098L167.637 52.7176ZM87.5616 69.4536C69.4933 57.5492 63.8315 45.817 62.8477 36.6799C61.8532 27.4429 65.582 20.3694 67.2091 17.7535L63.8126 15.6408C61.969 18.6047 57.7392 26.5993 58.8707 37.1081C60.0129 47.7166 66.5618 60.4079 85.3609 72.7938L87.5616 69.4536ZM67.2091 17.7535C72.0456 9.978 81.5992 5.30095 91.2958 4.81537C100.974 4.33073 110.273 8.02977 114.898 16.3369L118.393 14.391C112.815 4.37254 101.805 0.28408 91.0958 0.820374C80.4052 1.35573 69.4933 6.50807 63.8126 15.6408L67.2091 17.7535ZM114.898 16.3369C119.473 24.552 117.438 33.2098 110.792 40.6172C104.103 48.072 92.8691 54.0282 79.8145 56.2473C66.7932 58.4606 52.1108 56.9277 38.5635 49.6025C25.0359 42.2879 12.502 29.1232 3.87977 7.83036L0.172209 9.33169C9.09973 31.3784 22.2187 45.3119 36.661 53.1211C51.0837 60.9196 66.6882 62.5359 80.4848 60.1907C94.2482 57.8512 106.364 51.5411 113.769 43.2886C121.216 34.9887 124.021 24.4983 118.393 14.391L114.898 16.3369Z" fill="#060606"/>
</svg>
