<svg width="63" height="63" viewBox="0 0 63 63" fill="none" xmlns="http://www.w3.org/2000/svg">
<rect x="0.5" y="0.5" width="61.9302" height="61.9302" rx="30.9651" fill="white" stroke="#94D7E8"/>
<path d="M31.4633 37.2972C34.6836 37.2972 37.2943 34.6866 37.2943 31.4662C37.2943 28.2459 34.6836 25.6353 31.4633 25.6353C28.2429 25.6353 25.6323 28.2459 25.6323 31.4662C25.6323 34.6866 28.2429 37.2972 31.4633 37.2972Z" fill="white"/>
<path d="M38.5477 25.6335C39.2377 25.6335 39.797 25.0741 39.797 24.3841C39.797 23.6941 39.2377 23.1348 38.5477 23.1348C37.8577 23.1348 37.2983 23.6941 37.2983 24.3841C37.2983 25.0741 37.8577 25.6335 38.5477 25.6335Z" fill="white"/>
<g clip-path="url(#clip0_3_506)">
<path d="M40.0569 15.2935H22.8743C18.6877 15.2935 15.2938 18.6874 15.2938 22.874V40.0566C15.2938 44.2432 18.6877 47.6371 22.8743 47.6371H40.0569C44.2435 47.6371 47.6374 44.2432 47.6374 40.0566V22.874C47.6374 18.6874 44.2435 15.2935 40.0569 15.2935Z" fill="url(#paint0_radial_3_506)"/>
<path d="M40.0569 15.2935H22.8743C18.6877 15.2935 15.2938 18.6874 15.2938 22.874V40.0566C15.2938 44.2432 18.6877 47.6371 22.8743 47.6371H40.0569C44.2435 47.6371 47.6374 44.2432 47.6374 40.0566V22.874C47.6374 18.6874 44.2435 15.2935 40.0569 15.2935Z" fill="url(#paint1_radial_3_506)"/>
<path d="M31.467 18.8311C28.0358 18.8311 27.6051 18.8461 26.2575 18.9074C24.9125 18.969 23.9944 19.1819 23.1911 19.4944C22.36 19.817 21.6551 20.2487 20.9529 20.9512C20.2501 21.6535 19.8184 22.3584 19.4947 23.1891C19.1814 23.9926 18.9682 24.9112 18.9077 26.2556C18.8474 27.6033 18.8316 28.0341 18.8316 31.4654C18.8316 34.8967 18.8468 35.3261 18.9079 36.6736C18.9699 38.0187 19.1827 38.9368 19.4949 39.7401C19.8179 40.5712 20.2496 41.276 20.952 41.9782C21.6541 42.6811 22.359 43.1138 23.1894 43.4365C23.9934 43.7489 24.9116 43.9618 26.2564 44.0235C27.6041 44.0847 28.0344 44.0998 31.4655 44.0998C34.8971 44.0998 35.3264 44.0847 36.674 44.0235C38.019 43.9618 38.9381 43.7489 39.7421 43.4365C40.5728 43.1138 41.2766 42.6811 41.9786 41.9782C42.6814 41.276 43.113 40.5712 43.4368 39.7405C43.7474 38.9368 43.9606 38.0184 44.0238 36.6739C44.0843 35.3263 44.1001 34.8967 44.1001 31.4654C44.1001 28.0341 44.0843 27.6035 44.0238 26.2558C43.9606 24.9108 43.7474 23.9928 43.4368 23.1895C43.113 22.3584 42.6814 21.6535 41.9786 20.9512C41.2758 20.2485 40.573 19.8168 39.7413 19.4945C38.9359 19.1819 38.0172 18.9689 36.6722 18.9074C35.3245 18.8461 34.8954 18.8311 31.4631 18.8311H31.467ZM30.3336 21.1079C30.67 21.1074 31.0454 21.1079 31.467 21.1079C34.8405 21.1079 35.2402 21.12 36.5724 21.1805C37.8042 21.2369 38.4728 21.4427 38.9182 21.6156C39.5078 21.8446 39.9282 22.1184 40.3701 22.5607C40.8123 23.0029 41.086 23.424 41.3155 24.0136C41.4885 24.4583 41.6945 25.1269 41.7506 26.3588C41.8112 27.6907 41.8243 28.0907 41.8243 31.4625C41.8243 34.8343 41.8112 35.2345 41.7506 36.5662C41.6943 37.7981 41.4885 38.4667 41.3155 38.9115C41.0866 39.5012 40.8123 39.921 40.3701 40.3629C39.9279 40.8051 39.5081 41.0788 38.9182 41.3079C38.4733 41.4816 37.8042 41.6869 36.5724 41.7432C35.2405 41.8038 34.8405 41.8169 31.467 41.8169C28.0934 41.8169 27.6935 41.8038 26.3618 41.7432C25.1299 41.6864 24.4613 41.4806 24.0156 41.3076C23.4261 41.0786 23.0048 40.8049 22.5626 40.3627C22.1205 39.9205 21.8468 39.5004 21.6172 38.9105C21.4443 38.4657 21.2382 37.7971 21.1821 36.5652C21.1216 35.2333 21.1095 34.8333 21.1095 31.4594C21.1095 28.0854 21.1216 27.6875 21.1821 26.3556C21.2385 25.1238 21.4443 24.4552 21.6172 24.0098C21.8463 23.4202 22.1205 22.9991 22.5628 22.5569C23.0051 22.1147 23.4261 21.8409 24.0157 21.6115C24.4611 21.4377 25.1299 21.2324 26.3618 21.1758C27.5273 21.1232 27.9789 21.1074 30.3336 21.1047V21.1079ZM38.2112 23.2057C37.3741 23.2057 36.6951 23.8841 36.6951 24.7213C36.6951 25.5583 37.3741 26.2374 38.2112 26.2374C39.0482 26.2374 39.7273 25.5583 39.7273 24.7213C39.7273 23.8842 39.0482 23.2052 38.2112 23.2052V23.2057ZM31.467 24.9771C27.8839 24.9771 24.9788 27.8822 24.9788 31.4654C24.9788 35.0486 27.8839 37.9523 31.467 37.9523C35.0502 37.9523 37.9543 35.0486 37.9543 31.4654C37.9543 27.8823 35.0499 24.9771 31.4668 24.9771H31.467ZM31.467 27.2539C33.7928 27.2539 35.6785 29.1393 35.6785 31.4654C35.6785 33.7913 33.7928 35.6769 31.467 35.6769C29.1412 35.6769 27.2556 33.7913 27.2556 31.4654C27.2556 29.1393 29.141 27.2539 31.467 27.2539Z" fill="white"/>
</g>
<defs>
<radialGradient id="paint0_radial_3_506" cx="0" cy="0" r="1" gradientUnits="userSpaceOnUse" gradientTransform="translate(23.8851 50.1282) rotate(-90) scale(32.0549 29.8136)">
<stop stop-color="#FFDD55"/>
<stop offset="0.1" stop-color="#FFDD55"/>
<stop offset="0.5" stop-color="#FF543E"/>
<stop offset="1" stop-color="#C837AB"/>
</radialGradient>
<radialGradient id="paint1_radial_3_506" cx="0" cy="0" r="1" gradientUnits="userSpaceOnUse" gradientTransform="translate(9.87612 17.6233) rotate(78.681) scale(14.3287 59.0635)">
<stop stop-color="#3771C8"/>
<stop offset="0.128" stop-color="#3771C8"/>
<stop offset="1" stop-color="#6600FF" stop-opacity="0"/>
</radialGradient>
<clipPath id="clip0_3_506">
<rect width="32.3436" height="32.3436" fill="white" transform="translate(15.2938 15.2935)"/>
</clipPath>
</defs>
</svg>
