<svg width="115" height="111" viewBox="0 0 115 111" fill="none" xmlns="http://www.w3.org/2000/svg">
<path fill-rule="evenodd" clip-rule="evenodd" d="M53.4982 60.4618C49.7002 63.5908 49.7657 72.3456 49.8312 82.491V85.3672L49.864 86.4734C49.8967 96.0499 50.0277 104.267 52.385 107.934C53.138 109.166 54.6113 110.051 56.5758 110.589C57.0669 110.62 57.558 110.62 58.0818 110.62C62.8947 110.62 67.5766 110.051 72.0621 108.977C73.8956 108.123 75.2379 107.08 75.6963 106.006C75.991 105.31 76.1219 104.046 76.1219 102.371C76.1219 95.7338 74.092 83.0283 73.1098 76.8968L72.6187 73.7046L72.5205 73.0725L72.3895 72.1244C71.571 66.6882 70.1631 60.8095 59.9153 59.2924C57.0669 58.8499 54.9715 59.2608 53.4982 60.4618ZM35.3271 101.613C35.6873 104.173 36.2111 106.101 36.9314 107.365C37.9791 107.765 39.0486 108.144 40.14 108.503C41.1222 107.681 41.7115 105.374 41.5151 99.811C41.2204 91.8147 39.8126 81.2584 37.5862 81.3848C35.1962 81.5113 34.2794 93.5531 35.3271 101.613ZM84.0124 81.7957C81.3604 83.0915 82.3754 97.8198 85.1583 102.529C85.453 103.003 86.0423 103.066 86.6971 102.972C88.7925 101.749 90.7897 100.401 92.6887 98.926C92.9179 98.452 93.1143 97.883 93.2453 97.1561C93.7691 94.596 87.5157 80.1838 84.0124 81.7957ZM0 54.8044C0 73.1673 9.46204 89.4127 23.9334 99.3369C24.3263 98.926 24.6209 97.7882 24.8501 96.8401L24.9156 96.4608L25.243 95.1333C26.4217 89.792 26.6509 84.577 25.996 78.4139C25.6032 74.4 24.9483 72.0295 24.359 69.9436C23.7369 67.6995 23.2131 65.74 23.2786 62.7058C23.3113 59.9877 23.9006 58.0914 24.5227 56.0686C25.2758 53.793 26.0943 51.2013 26.1925 46.7133C26.5199 37.9901 27.4366 35.8093 30.1541 33.2809C32.8716 30.7524 33.6901 29.7094 33.6901 27.8447C33.6901 26.0115 31.1363 21.7764 35.6218 17.32C38.5357 14.4754 41.3187 13.4641 43.3486 13.4641C44.4945 13.4641 45.3785 13.7801 45.9023 14.2858C47.3429 15.7397 46.9173 18.5526 44.0689 22.2821C41.1877 26.0115 41.2532 27.655 41.4496 28.5084C41.6133 29.3618 42.4973 30.5312 44.1671 31.7954C45.4767 32.8068 46.95 33.9446 47.9323 35.5881C49.733 38.7171 50.7807 41.7196 52.254 45.8284L52.6469 46.9978L52.8433 47.4403C54.2512 50.6956 57.689 51.8651 63.615 51.8651C69.7375 51.8651 76.2529 48.0092 76.2529 45.0382C76.2529 42.0989 75.0088 41.7196 75.0088 39.1911C75.0088 36.6627 78.9376 29.3618 84.8964 29.3618C87.9085 29.3618 89.4801 31.4793 88.0068 34.3871C86.5989 37.2632 83.685 41.4035 83.685 43.2367C83.685 46.5869 88.8908 43.9952 92.1648 41.4035C95.5044 38.8119 96.2574 38.0849 98.5165 34.229C99.9244 31.827 101.922 31.3845 103.231 31.985C104.704 32.712 105.621 34.7663 104.312 37.7373C103.264 40.0445 100.448 42.9838 97.4688 46.0812C93.5072 50.2216 89.0217 54.9308 89.0217 57.9334C89.0217 73.2622 98.0254 86.663 99.0404 88.1169C100.055 89.5707 100.612 90.0764 100.939 90.2028C109.354 80.7211 114.461 68.4581 114.494 55.0256V54.5515V53.5402C113.806 23.8623 88.4324 0 57.2633 0C25.6359 0 0 24.5261 0 54.8044Z" fill="#F14635"/>
</svg>
