<svg width="22" height="22" viewBox="0 0 22 22" fill="none" xmlns="http://www.w3.org/2000/svg">
<g clip-path="url(#clip0_3_486)">
<path fill-rule="evenodd" clip-rule="evenodd" d="M7.8892 12.4674L11.0022 14.5959L14.003 12.5257L20.7295 19.162C20.552 19.2199 20.3643 19.2493 20.1663 19.25H1.8337C1.5917 19.25 1.3607 19.2027 1.1484 19.118L7.8892 12.4674ZM22 7.0136V17.4163C22 17.688 21.9406 17.9454 21.835 18.1775L15.2416 11.6721L22 7.0136ZM0 7.0719L6.6462 11.6171L0.1166 18.0609C0.040109 17.8546 0.000636891 17.6364 0 17.4163L0 7.0719ZM20.1663 2.75C21.1783 2.75 22 3.5706 22 4.5837V5.2283L10.9978 12.8128L0 5.291V4.5837C0 3.5717 0.8206 2.75 1.8337 2.75H20.1663Z" fill="#060606" fill-opacity="0.85"/>
</g>
<defs>
<clipPath id="clip0_3_486">
<rect width="22" height="22" fill="white"/>
</clipPath>
</defs>
</svg>
