<svg width="22" height="22" viewBox="0 0 22 22" fill="none" xmlns="http://www.w3.org/2000/svg">
<path fill-rule="evenodd" clip-rule="evenodd" d="M2.59244 0.701516C2.83302 0.461277 3.12191 0.274914 3.43996 0.154777C3.75801 0.0346406 4.09796 -0.0165269 4.43727 0.00466588C4.77659 0.0258586 5.10753 0.118928 5.40816 0.277705C5.7088 0.436483 5.97225 0.657344 6.18108 0.925652L8.64913 4.09655C9.10149 4.6782 9.26098 5.43586 9.08224 6.15089L8.33014 9.16228C8.29152 9.31827 8.29376 9.48157 8.33663 9.63644C8.3795 9.79132 8.46155 9.93252 8.57488 10.0464L11.9531 13.425C12.0672 13.5385 12.2086 13.6207 12.3638 13.6636C12.5189 13.7065 12.6824 13.7086 12.8386 13.6697L15.8484 12.9176C16.2013 12.8299 16.5694 12.8233 16.9252 12.8983C17.281 12.9733 17.6152 13.128 17.9026 13.3507L21.0732 15.8176C22.2131 16.7045 22.3176 18.389 21.2974 19.4079L19.8756 20.8297C18.8582 21.8472 17.3375 22.2941 15.9199 21.795C12.2909 20.5197 8.99636 18.4422 6.28145 15.7172C3.5568 13.0025 1.47948 9.70814 0.204141 6.07939C-0.293593 4.66307 0.153268 3.14088 1.17074 2.12333L2.59244 0.701516Z" fill="#060606" fill-opacity="0.85"/>
</svg>
