<svg width="63" height="63" viewBox="0 0 63 63" fill="none" xmlns="http://www.w3.org/2000/svg">
<rect x="0.569763" y="0.5" width="61.9302" height="61.9302" rx="30.9651" fill="white" stroke="#94D7E8"/>
<g clip-path="url(#clip0_3_523)">
<path d="M32.0698 14C27.5621 14 23.2351 15.7922 20.0502 18.9791C16.8621 22.1674 15.0707 26.4912 15.0698 31C15.0698 35.5069 16.8627 39.8339 20.0502 43.0209C23.2351 46.2078 27.5621 48 32.0698 48C36.5774 48 40.9045 46.2078 44.0893 43.0209C47.2768 39.8339 49.0698 35.5069 49.0698 31C49.0698 26.4931 47.2768 22.1661 44.0893 18.9791C40.9045 15.7922 36.5774 14 32.0698 14Z" fill="url(#paint0_linear_3_523)"/>
<path d="M22.7648 30.8201C27.7213 28.6611 31.0257 27.2377 32.6779 26.5499C37.4007 24.5861 38.3809 24.2451 39.021 24.2335C39.1618 24.2312 39.4752 24.266 39.6798 24.4314C39.8498 24.5708 39.8976 24.7594 39.9215 24.8919C39.9427 25.0241 39.972 25.3256 39.9481 25.561C39.6931 28.2491 38.5854 34.7723 38.0223 37.7832C37.7859 39.0571 37.3157 39.4842 36.8615 39.5259C35.8734 39.6168 35.1243 38.8736 34.1681 38.2469C32.6726 37.266 31.8279 36.6556 30.3749 35.6985C28.6962 34.5925 29.7852 33.9845 30.7415 32.991C30.9912 32.731 35.3421 28.7745 35.4245 28.4156C35.4351 28.3707 35.4457 28.2034 35.3448 28.1152C35.2465 28.0268 35.1004 28.057 34.9941 28.0809C34.8427 28.1149 32.4548 29.6949 27.8223 32.8205C27.1449 33.2864 26.5313 33.5135 25.9788 33.5016C25.3732 33.4885 24.2045 33.1584 23.3359 32.8763C22.2734 32.5302 21.426 32.3471 21.5004 31.7593C21.5376 31.4533 21.9599 31.1401 22.7648 30.8201Z" fill="white"/>
</g>
<defs>
<linearGradient id="paint0_linear_3_523" x1="1715.07" y1="14" x2="1715.07" y2="3414" gradientUnits="userSpaceOnUse">
<stop stop-color="#2AABEE"/>
<stop offset="1" stop-color="#229ED9"/>
</linearGradient>
<clipPath id="clip0_3_523">
<rect width="34" height="34" fill="white" transform="translate(15.0698 14)"/>
</clipPath>
</defs>
</svg>
