<svg width="27" height="27" viewBox="0 0 27 27" fill="none" xmlns="http://www.w3.org/2000/svg">
<g clip-path="url(#clip0_58_282)">
<path d="M13.5 0C9.92039 0 6.48422 1.4232 3.95508 3.95402C1.42335 6.48587 0.000724462 9.91951 0 13.5C0 17.079 1.42383 20.5151 3.95508 23.046C6.48422 25.5768 9.92039 27 13.5 27C17.0796 27 20.5158 25.5768 23.0449 23.046C25.5762 20.5151 27 17.079 27 13.5C27 9.92102 25.5762 6.48485 23.0449 3.95402C20.5158 1.4232 17.0796 0 13.5 0Z" fill="url(#paint0_linear_58_282)"/>
<path d="M6.1107 13.3573C10.0468 11.6428 12.6709 10.5125 13.9829 9.96627C17.7334 8.40681 18.5117 8.13596 19.0201 8.12679C19.1319 8.125 19.3808 8.15263 19.5432 8.28394C19.6782 8.39468 19.7162 8.54445 19.7352 8.6496C19.752 8.75464 19.7752 8.99406 19.7562 9.18095C19.5537 11.3156 18.6741 16.4958 18.227 18.8868C18.0392 19.8985 17.6659 20.2377 17.3052 20.2708C16.5205 20.3429 15.9256 19.7527 15.1662 19.2551C13.9787 18.4761 13.3079 17.9914 12.1541 17.2314C10.8209 16.353 11.6858 15.8702 12.4452 15.0813C12.6434 14.8748 16.0986 11.7329 16.164 11.4479C16.1724 11.4122 16.1809 11.2794 16.1007 11.2093C16.0227 11.1391 15.9066 11.1631 15.8223 11.1821C15.702 11.2091 13.8057 12.4638 10.127 14.9459C9.58906 15.3159 9.1018 15.4962 8.66305 15.4867C8.18211 15.4764 7.25398 15.2142 6.56422 14.9902C5.72047 14.7153 5.04758 14.57 5.10664 14.1032C5.13617 13.8602 5.47156 13.6115 6.1107 13.3573Z" fill="white"/>
</g>
<defs>
<linearGradient id="paint0_linear_58_282" x1="1350" y1="0" x2="1350" y2="2700" gradientUnits="userSpaceOnUse">
<stop stop-color="#2AABEE"/>
<stop offset="1" stop-color="#229ED9"/>
</linearGradient>
<clipPath id="clip0_58_282">
<rect width="27" height="27" fill="white"/>
</clipPath>
</defs>
</svg>
