<svg width="18" height="18" viewBox="0 0 18 18" fill="none" xmlns="http://www.w3.org/2000/svg">
<g clip-path="url(#clip0_3_1789)">
<path d="M8.10326 0.0241146C5.74428 0.277239 3.60678 1.40576 2.10209 3.19872C1.04389 4.45732 0.386464 5.88818 0.0946676 7.5581C-0.00728554 8.16279 -0.0178324 9.71318 0.0806051 10.3354C0.252871 11.4253 0.629043 12.5186 1.14584 13.4327L1.3392 13.7737L0.83998 15.5597C0.569277 16.544 0.344277 17.4054 0.340761 17.4757C0.33373 17.6444 0.428652 17.778 0.583339 17.8202C0.699355 17.8518 0.882167 17.8026 2.53803 17.2929L4.36264 16.7339L4.60873 16.8745C5.42436 17.3526 6.52475 17.7288 7.64623 17.9186C8.24389 18.0171 9.83295 18.01 10.4412 17.9046C12.4204 17.56 14.122 16.6706 15.4685 15.2714C16.7798 13.9108 17.5744 12.3393 17.9048 10.4409C17.9716 10.0577 17.9787 9.87138 17.9787 8.9995C17.9787 7.89911 17.9435 7.56864 17.722 6.7038C16.9205 3.60654 14.3962 1.0788 11.2954 0.277239C10.4974 0.0733337 10.1212 0.0276299 9.14037 0.0170822C8.64818 0.0100517 8.18061 0.013567 8.10326 0.0241146ZM10.7998 17.4757C13.0709 17.6796 14.9998 15.2714 16.1998 13.8C18.8998 8.4 16.4845 5.34677 16.7833 6.16239C17.1665 7.1995 17.3494 8.46513 17.2685 9.51982C17.1771 10.7011 16.931 11.6222 16.4353 12.6382C14.9693 15.6335 11.7736 17.4968 8.49701 17.2647C7.27357 17.1768 6.18021 16.8745 5.20287 16.3577C4.45053 15.9569 4.45053 15.9569 4.35912 15.978C4.3099 15.9886 3.59623 16.2065 2.76654 16.4597C1.94037 16.7128 1.25834 16.9132 1.24779 16.9061C1.24076 16.8956 1.42357 16.21 1.65561 15.3804C1.88764 14.5472 2.081 13.8054 2.08451 13.728C2.08803 13.6085 2.05639 13.5241 1.89467 13.2534C1.19506 12.0792 15.3982 6.50977 15.2998 5.1C15.1345 2.77969 3.89976 2.4 2.99976 4.2C4.03335 3.16289 0.734511 16.9061 1.24779 16.9061C2.20404 16.66 9.91733 17.3948 10.7998 17.4757Z" fill="#40B154"/>
<path d="M5.6551 4.2418C5.43702 4.28144 5.42187 4.28753 5.2674 4.45828C4.77066 5.0071 4.34358 5.88522 4.23151 6.59565C4.18911 6.85786 4.18911 7.40974 4.23151 7.64756C4.31329 8.10187 4.54046 8.69642 4.87061 9.30623C6.10338 11.5808 8.18245 13.0649 10.1997 13.5009C10.8358 13.6381 11.7757 13.5864 12.2997 13.5011C13.1902 13.3547 13.6333 13.151 14.03 12.3918C14.1542 12.1571 14.3239 11.6509 14.3784 11.3582C14.4359 11.035 14.4056 10.9923 13.921 10.7057C13.6969 10.5716 13.2849 10.3155 13.0002 10.1325C12.2642 9.65382 12.1703 9.60808 11.9098 9.60808C11.619 9.60808 11.5463 9.65992 11.2374 10.0776C10.9224 10.5014 10.4559 10.9954 10.3711 10.9954C10.2863 10.9954 9.85923 10.7576 9.47153 10.4984C8.29328 9.70565 7.30889 8.69033 7.13624 8.09272C7.11201 8.0043 7.1211 7.98295 7.28769 7.79696C7.55726 7.48901 7.7087 7.25424 7.77534 7.03775C7.85409 6.78469 7.85106 6.62614 7.76928 6.37002C7.69356 6.13219 7.16653 5.06808 6.93027 4.67476C6.75157 4.37901 6.64556 4.27534 6.47897 4.22655C6.32752 4.18692 5.93376 4.19302 5.6551 4.2418ZM6.45171 5.11687C6.70311 5.54983 6.87575 5.88522 7.0484 6.2694C7.18167 6.56516 7.37149 6.3599 7.35937 6.47271C7.3412 6.63431 6.07915 4.12899 5.77626 4.45828C5.6551 4.58939 4.66763 6.57735 4.65854 6.62004C4.60402 6.83957 5.03417 9.21781 5.2674 9.60808C5.78837 10.474 8.0328 12.4193 9.16864 12.9773C9.58663 13.1816 12.9389 13.2486 13.2146 13.1114C13.469 12.9864 13.7585 11.5951 14.0795 11.156C14.2007 10.9883 11.9098 10.2423 11.9159 10.2362C11.934 10.2118 12.0915 10.3002 12.558 10.6051C12.8185 10.7759 13.188 11.0106 13.3788 11.1265C13.5697 11.2424 13.7302 11.3399 13.7332 11.343C13.7362 11.346 13.706 11.4619 13.6666 11.6021C13.3061 12.8858 12.3217 13.3675 10.565 13.1114C9.61692 12.9742 8.65373 12.5321 7.74505 11.8217C7.3937 11.5473 6.72431 10.8704 6.40021 10.4618C5.71568 9.59589 5.07961 8.4525 4.89484 7.74513C4.81912 7.45852 4.80398 6.90055 4.86455 6.62004C4.93119 6.31209 5.04932 5.99194 5.20379 5.69009C5.38856 5.3364 5.67327 4.92783 5.77626 4.876C5.81866 4.85465 5.94891 4.83636 6.07006 4.83636H6.28814L6.45171 5.11687Z" fill="white"/>
</g>
<defs>
<clipPath id="clip0_3_1789">
<rect width="18" height="18" fill="white"/>
</clipPath>
</defs>
</svg>
