<svg width="64" height="63" viewBox="0 0 64 63" fill="none" xmlns="http://www.w3.org/2000/svg">
<rect x="1.03496" y="0.5" width="61.9302" height="61.9302" rx="30.9651" fill="white" stroke="#94D7E8"/>
<g clip-path="url(#clip0_3_518)">
<path d="M51.1704 23.5927C50.9489 22.9028 50.5168 22.2739 49.9172 21.7685C49.3176 21.2631 48.5714 20.8989 47.7528 20.7122C44.7561 20.0234 32.6955 20.0234 32.6955 20.0234C32.6955 20.0234 20.6342 20.0443 17.6375 20.7331C16.819 20.9198 16.0727 21.284 15.4731 21.7894C14.8735 22.2948 14.4415 22.9237 14.22 23.6136C13.3136 28.1011 12.962 34.939 14.2449 39.247C14.4664 39.9369 14.8985 40.5658 15.4981 41.0712C16.0977 41.5766 16.8439 41.9408 17.6624 42.1275C20.6591 42.8163 32.7201 42.8163 32.7201 42.8163C32.7201 42.8163 44.7809 42.8163 47.7774 42.1275C48.596 41.9408 49.3422 41.5766 49.9419 41.0712C50.5415 40.5659 50.9736 39.9369 51.1951 39.247C52.1511 34.7532 52.4458 27.9195 51.1704 23.5927Z" fill="#FF0000"/>
<path d="M28.8562 36.3039L38.8615 31.4198L28.8562 26.5356V36.3039Z" fill="white"/>
</g>
<defs>
<clipPath id="clip0_3_518">
<rect width="38.6163" height="22.8837" fill="white" transform="translate(13.4069 20.0234)"/>
</clipPath>
</defs>
</svg>
