<svg width="18" height="14" viewBox="0 0 18 14" fill="none" xmlns="http://www.w3.org/2000/svg">
<g clip-path="url(#clip0_58_294)">
<path d="M17.6025 2.18361C17.4992 1.76155 17.2978 1.37678 17.0183 1.0676C16.7388 0.758421 16.391 0.535626 16.0095 0.4214C14.6126 0 8.99087 0 8.99087 0C8.99087 0 3.36883 0.0127555 1.972 0.434156C1.59045 0.548388 1.24261 0.771195 0.963115 1.08039C0.683623 1.38958 0.482232 1.77437 0.378998 2.19644C-0.0435099 4.94184 -0.207408 9.1252 0.390599 11.7608C0.493844 12.1828 0.69524 12.5676 0.974731 12.8768C1.25422 13.186 1.60206 13.4088 1.9836 13.523C3.38043 13.9444 9.00234 13.9444 9.00234 13.9444C9.00234 13.9444 14.6242 13.9444 16.0209 13.523C16.4025 13.4088 16.7503 13.186 17.0298 12.8768C17.3093 12.5676 17.5107 12.1828 17.614 11.7608C18.0596 9.01149 18.197 4.8307 17.6025 2.18361Z" fill="#FF0000"/>
<path d="M7.20117 9.96026L11.8649 6.9722L7.20117 3.98413V9.96026Z" fill="white"/>
</g>
<defs>
<clipPath id="clip0_58_294">
<rect width="18" height="14" fill="white"/>
</clipPath>
</defs>
</svg>
